# Blender 4.0.2
# www.blender.org
mtllib CornellBox-Original.mtl
g Ceiling_Plane
v -5.000000 0.000000 5.000000
v 5.000000 0.000000 5.000000
v -5.000000 0.000000 -5.000000
v 5.000000 0.000000 -5.000000
vn -0.0000 1.0000 -0.0000
vt 0.000000 0.000000
vt 1.000000 0.000000
vt 1.000000 1.000000
vt 0.000000 1.000000
s 0
usemtl BackWall
f 1/1/1 2/2/1 4/3/1 3/4/1
g BackWall_Plane.001
v -5.000000 0.000000 -5.000000
v 5.000000 0.000000 -5.000000
v -5.000000 10.000000 -5.000000
v 5.000000 10.000000 -5.000000
vn -0.0000 -0.0000 1.0000
vt 0.000000 0.000000
vt 1.000000 0.000000
vt 1.000000 1.000000
vt 0.000000 1.000000
s 0
usemtl BackWall
f 5/5/2 6/6/2 8/7/2 7/8/2
g RightWall_Plane.002
v 5.000000 0.000000 5.000000
v 5.000000 0.000000 -5.000000
v 5.000000 10.000000 5.000000
v 5.000000 10.000000 -5.000000
vn 1.0000 -0.0000 -0.0000
vt 0.000000 0.000000
vt 1.000000 0.000000
vt 1.000000 1.000000
vt 0.000000 1.000000
s 0
usemtl RightWall
f 9/9/3 10/10/3 12/11/3 11/12/3
g LeftWall_Plane.003
v -5.000000 0.000000 5.000000
v -5.000000 0.000000 -5.000000
v -5.000000 10.000000 5.000000
v -5.000000 10.000000 -5.000000
vn 1.0000 -0.0000 -0.0000
vt 0.000000 0.000000
vt 1.000000 0.000000
vt 1.000000 1.000000
vt 0.000000 1.000000
s 0
usemtl LeftWall
f 13/13/4 14/14/4 16/15/4 15/16/4
g Floor_Plane.004
v -5.000000 10.000000 5.000000
v 5.000000 10.000000 5.000000
v -5.000000 10.000000 -5.000000
v 5.000000 10.000000 -5.000000
vn -0.0000 1.0000 -0.0000
vt 0.000000 0.000000
vt 1.000000 0.000000
vt 1.000000 1.000000
vt 0.000000 1.000000
s 0
usemtl BackWall
f 17/17/5 18/18/5 20/19/5 19/20/5
g TallBox_Cube.001
v -3.022324 0.000000 -0.030675
v -3.022324 6.000000 -0.030675
v -4.157528 0.000000 -3.398273
v -4.157528 6.000000 -3.398273
v 0.345274 0.000000 -1.165880
v 0.345274 6.000000 -1.165880
v -0.789931 0.000000 -4.533477
v -0.789931 6.000000 -4.533477
vn -0.9476 -0.0000 0.3194
vn -0.3194 -0.0000 -0.9476
vn 0.9476 -0.0000 -0.3194
vn 0.3194 -0.0000 0.9476
vn -0.0000 -1.0000 -0.0000
vn -0.0000 1.0000 -0.0000
vt 0.375000 0.000000
vt 0.625000 0.000000
vt 0.625000 0.250000
vt 0.375000 0.250000
vt 0.625000 0.500000
vt 0.375000 0.500000
vt 0.625000 0.750000
vt 0.375000 0.750000
vt 0.625000 1.000000
vt 0.375000 1.000000
vt 0.125000 0.500000
vt 0.125000 0.750000
vt 0.875000 0.500000
vt 0.875000 0.750000
s 0
usemtl TallBox
f 21/21/6 22/22/6 24/23/6 23/24/6
f 23/24/7 24/23/7 28/25/7 27/26/7
f 27/26/8 28/25/8 26/27/8 25/28/8
f 25/28/9 26/27/9 22/29/9 21/30/9
f 23/31/10 27/26/10 25/28/10 21/32/10
f 28/25/11 24/33/11 22/34/11 26/27/11
g SmallBox_Cube.002
v 0.329898 0.050000 1.894377
v 0.329898 3.050000 1.894377
v 0.751126 0.050000 -1.242757
v 0.751126 3.050000 -1.242757
v 3.467031 0.050000 2.315606
v 3.467031 3.050000 2.315606
v 3.888260 0.050000 -0.821528
v 3.888260 3.050000 -0.821528
vn -0.9911 -0.0000 -0.1331
vn 0.1331 -0.0000 -0.9911
vn 0.9911 -0.0000 0.1331
vn -0.1331 -0.0000 0.9911
vn -0.0000 -1.0000 -0.0000
vn -0.0000 1.0000 -0.0000
vt 0.375000 0.000000
vt 0.625000 0.000000
vt 0.625000 0.250000
vt 0.375000 0.250000
vt 0.625000 0.500000
vt 0.375000 0.500000
vt 0.625000 0.750000
vt 0.375000 0.750000
vt 0.625000 1.000000
vt 0.375000 1.000000
vt 0.125000 0.500000
vt 0.125000 0.750000
vt 0.875000 0.500000
vt 0.875000 0.750000
s 0
usemtl SmallBox
f 29/35/12 30/36/12 32/37/12 31/38/12
f 31/38/13 32/37/13 36/39/13 35/40/13
f 35/40/14 36/39/14 34/41/14 33/42/14
f 33/42/15 34/41/15 30/43/15 29/44/15
f 31/45/16 35/40/16 33/42/16 29/46/16
f 36/39/17 32/47/17 30/48/17 34/41/17
