# Blender 4.0.2
# www.blender.org
mtllib sphere.mtl
o Sphere
v 0.270598 0.923880 -0.270598
v 0.500000 0.707107 -0.500000
v 0.653281 0.382683 -0.653281
v 0.707107 0.000000 -0.707107
v 0.653281 -0.382683 -0.653281
v 0.500000 -0.707107 -0.500000
v 0.270598 -0.923880 -0.270598
v 0.382683 0.923880 0.000000
v 0.707107 0.707107 0.000000
v 0.923879 0.382683 0.000000
v 1.000000 0.000000 0.000000
v 0.923879 -0.382683 0.000000
v 0.707107 -0.707107 0.000000
v 0.382683 -0.923880 0.000000
v 0.270598 0.923880 0.270598
v 0.500000 0.707107 0.500000
v 0.653281 0.382683 0.653281
v 0.707107 0.000000 0.707107
v 0.653281 -0.382683 0.653281
v 0.500000 -0.707107 0.500000
v 0.270598 -0.923880 0.270598
v 0.000000 0.923880 0.382683
v 0.000000 0.707107 0.707107
v 0.000000 0.382683 0.923879
v 0.000000 0.000000 1.000000
v 0.000000 -0.382683 0.923879
v 0.000000 -0.707107 0.707107
v 0.000000 -0.923880 0.382683
v -0.270598 0.923880 0.270598
v -0.500000 0.707107 0.500000
v -0.653281 0.382683 0.653281
v -0.707107 0.000000 0.707107
v -0.653281 -0.382683 0.653281
v -0.500000 -0.707107 0.500000
v -0.270598 -0.923880 0.270598
v -0.382683 0.923880 0.000000
v -0.707107 0.707107 0.000000
v -0.923879 0.382683 0.000000
v -1.000000 0.000000 0.000000
v -0.923879 -0.382683 0.000000
v -0.707107 -0.707107 0.000000
v -0.382683 -0.923880 0.000000
v -0.270598 0.923880 -0.270598
v -0.500000 0.707107 -0.500000
v -0.653281 0.382683 -0.653281
v -0.707107 0.000000 -0.707107
v -0.653281 -0.382683 -0.653281
v -0.500000 -0.707107 -0.500000
v -0.270598 -0.923880 -0.270598
v 0.000000 -1.000000 0.000000
v 0.000000 1.000000 0.000000
v 0.000000 0.923880 -0.382683
v 0.000000 0.707107 -0.707107
v 0.000000 0.382683 -0.923879
v 0.000000 0.000000 -1.000000
v 0.000000 -0.382683 -0.923879
v 0.000000 -0.707107 -0.707107
v 0.000000 -0.923880 -0.382683
vn -0.0000 -1.0000 -0.0000
vn -0.0000 -0.9063 -0.4226
vn 0.2988 -0.9063 -0.2988
vn -0.0000 -0.6839 -0.7296
vn -0.0000 -0.3668 -0.9303
vn 0.6578 -0.3668 -0.6578
vn 0.5159 -0.6839 -0.5159
vn -0.0000 -0.0000 -1.0000
vn -0.0000 0.3668 -0.9303
vn 0.6578 0.3668 -0.6578
vn 0.7071 -0.0000 -0.7071
vn -0.0000 0.6839 -0.7296
vn -0.0000 0.9063 -0.4226
vn 0.2988 0.9063 -0.2988
vn 0.5159 0.6839 -0.5159
vn -0.0000 1.0000 -0.0000
vn 0.4226 0.9063 -0.0000
vn 0.7296 0.6839 -0.0000
vn 0.7296 -0.6839 -0.0000
vn 0.4226 -0.9063 -0.0000
vn 1.0000 -0.0000 -0.0000
vn 0.9303 -0.3668 -0.0000
vn 0.9303 0.3668 -0.0000
vn 0.5159 -0.6839 0.5159
vn 0.2988 -0.9063 0.2988
vn 0.7071 -0.0000 0.7071
vn 0.6578 -0.3668 0.6578
vn 0.5159 0.6839 0.5159
vn 0.6578 0.3668 0.6578
vn 0.2988 0.9063 0.2988
vn -0.0000 0.9063 0.4226
vn -0.0000 -0.9063 0.4226
vn -0.0000 -0.3668 0.9303
vn -0.0000 -0.6839 0.7296
vn -0.0000 0.3668 0.9303
vn -0.0000 -0.0000 1.0000
vn -0.0000 0.6839 0.7296
vn -0.6578 -0.3668 0.6578
vn -0.5159 -0.6839 0.5159
vn -0.6578 0.3668 0.6578
vn -0.7071 -0.0000 0.7071
vn -0.2988 0.9063 0.2988
vn -0.5159 0.6839 0.5159
vn -0.2988 -0.9063 0.2988
vn -0.7296 -0.6839 -0.0000
vn -0.4226 -0.9063 -0.0000
vn -1.0000 -0.0000 -0.0000
vn -0.9303 -0.3668 -0.0000
vn -0.7296 0.6839 -0.0000
vn -0.9303 0.3668 -0.0000
vn -0.4226 0.9063 -0.0000
vn -0.7071 -0.0000 -0.7071
vn -0.6578 -0.3668 -0.6578
vn -0.5159 0.6839 -0.5159
vn -0.6578 0.3668 -0.6578
vn -0.2988 0.9063 -0.2988
vn -0.2988 -0.9063 -0.2988
vn -0.5159 -0.6839 -0.5159
vt 0.687500 0.000000
vt 0.750000 0.125000
vt 0.625000 0.125000
vt 0.750000 0.250000
vt 0.750000 0.375000
vt 0.625000 0.375000
vt 0.625000 0.250000
vt 0.750000 0.500000
vt 0.750000 0.625000
vt 0.625000 0.625000
vt 0.625000 0.500000
vt 0.750000 0.750000
vt 0.750000 0.875000
vt 0.625000 0.875000
vt 0.625000 0.750000
vt 0.687500 1.000000
vt 0.500000 0.875000
vt 0.500000 0.750000
vt 0.500000 0.250000
vt 0.500000 0.125000
vt 0.500000 0.500000
vt 0.500000 0.375000
vt 0.500000 0.625000
vt 0.562500 1.000000
vt 0.562500 0.000000
vt 0.375000 0.250000
vt 0.375000 0.125000
vt 0.375000 0.500000
vt 0.375000 0.375000
vt 0.375000 0.750000
vt 0.375000 0.625000
vt 0.437500 1.000000
vt 0.375000 0.875000
vt 0.437500 0.000000
vt 0.312500 1.000000
vt 0.250000 0.875000
vt 0.312500 0.000000
vt 0.250000 0.125000
vt 0.250000 0.375000
vt 0.250000 0.250000
vt 0.250000 0.625000
vt 0.250000 0.500000
vt 0.250000 0.750000
vt 0.125000 0.375000
vt 0.125000 0.250000
vt 0.125000 0.625000
vt 0.125000 0.500000
vt 0.125000 0.875000
vt 0.125000 0.750000
vt 0.125000 0.125000
vt 0.187500 1.000000
vt 0.187500 0.000000
vt 0.000000 0.250000
vt 0.000000 0.125000
vt 0.000000 0.500000
vt 0.000000 0.375000
vt 0.000000 0.750000
vt 0.000000 0.625000
vt 0.062500 1.000000
vt 0.000000 0.875000
vt 0.062500 0.000000
vt 1.000000 0.375000
vt 1.000000 0.500000
vt 0.875000 0.500000
vt 0.875000 0.375000
vt 1.000000 0.625000
vt 1.000000 0.750000
vt 0.875000 0.750000
vt 0.875000 0.625000
vt 1.000000 0.875000
vt 0.937500 1.000000
vt 0.875000 0.875000
vt 0.937500 0.000000
vt 1.000000 0.125000
vt 0.875000 0.125000
vt 1.000000 0.250000
vt 0.875000 0.250000
vt 0.812500 0.000000
vt 0.812500 1.000000
s 1
usemtl sphere
f 50/1/1 58/2/2 7/3/3
f 57/4/4 56/5/5 5/6/6 6/7/7
f 55/8/8 54/9/9 3/10/10 4/11/11
f 53/12/12 52/13/13 1/14/14 2/15/15
f 58/2/2 57/4/4 6/7/7 7/3/3
f 56/5/5 55/8/8 4/11/11 5/6/6
f 54/9/9 53/12/12 2/15/15 3/10/10
f 52/13/13 51/16/16 1/14/14
f 2/15/15 1/14/14 8/17/17 9/18/18
f 7/3/3 6/7/7 13/19/19 14/20/20
f 5/6/6 4/11/11 11/21/21 12/22/22
f 3/10/10 2/15/15 9/18/18 10/23/23
f 1/14/14 51/24/16 8/17/17
f 50/25/1 7/3/3 14/20/20
f 6/7/7 5/6/6 12/22/22 13/19/19
f 4/11/11 3/10/10 10/23/23 11/21/21
f 14/20/20 13/19/19 20/26/24 21/27/25
f 12/22/22 11/21/21 18/28/26 19/29/27
f 10/23/23 9/18/18 16/30/28 17/31/29
f 8/17/17 51/32/16 15/33/30
f 50/34/1 14/20/20 21/27/25
f 13/19/19 12/22/22 19/29/27 20/26/24
f 11/21/21 10/23/23 17/31/29 18/28/26
f 9/18/18 8/17/17 15/33/30 16/30/28
f 15/33/30 51/35/16 22/36/31
f 50/37/1 21/27/25 28/38/32
f 20/26/24 19/29/27 26/39/33 27/40/34
f 18/28/26 17/31/29 24/41/35 25/42/36
f 16/30/28 15/33/30 22/36/31 23/43/37
f 21/27/25 20/26/24 27/40/34 28/38/32
f 19/29/27 18/28/26 25/42/36 26/39/33
f 17/31/29 16/30/28 23/43/37 24/41/35
f 27/40/34 26/39/33 33/44/38 34/45/39
f 25/42/36 24/41/35 31/46/40 32/47/41
f 23/43/37 22/36/31 29/48/42 30/49/43
f 28/38/32 27/40/34 34/45/39 35/50/44
f 26/39/33 25/42/36 32/47/41 33/44/38
f 24/41/35 23/43/37 30/49/43 31/46/40
f 22/36/31 51/51/16 29/48/42
f 50/52/1 28/38/32 35/50/44
f 35/50/44 34/45/39 41/53/45 42/54/46
f 33/44/38 32/47/41 39/55/47 40/56/48
f 31/46/40 30/49/43 37/57/49 38/58/50
f 29/48/42 51/59/16 36/60/51
f 50/61/1 35/50/44 42/54/46
f 34/45/39 33/44/38 40/56/48 41/53/45
f 32/47/41 31/46/40 38/58/50 39/55/47
f 30/49/43 29/48/42 36/60/51 37/57/49
f 40/62/48 39/63/47 46/64/52 47/65/53
f 38/66/50 37/67/49 44/68/54 45/69/55
f 36/70/51 51/71/16 43/72/56
f 50/73/1 42/74/46 49/75/57
f 41/76/45 40/62/48 47/65/53 48/77/58
f 39/63/47 38/66/50 45/69/55 46/64/52
f 37/67/49 36/70/51 43/72/56 44/68/54
f 42/74/46 41/76/45 48/77/58 49/75/57
f 50/78/1 49/75/57 58/2/2
f 48/77/58 47/65/53 56/5/5 57/4/4
f 46/64/52 45/69/55 54/9/9 55/8/8
f 44/68/54 43/72/56 52/13/13 53/12/12
f 49/75/57 48/77/58 57/4/4 58/2/2
f 47/65/53 46/64/52 55/8/8 56/5/5
f 45/69/55 44/68/54 53/12/12 54/9/9
f 43/72/56 51/79/16 52/13/13

o Light
usemtl light
v 2 5 -2
v 2 5 2
v -2 5 2
v -2 5 -2
f -1 -2 -3 -4

usemtl light_red
v 6 2 -2
v 6 -2 -2
v 6 -2 2
v 6 -2 2
f -1 -2 -3 -4

o Walls
usemtl wall
# floor
v 10 -3 10
v 10 -3 -10
v -10 -3 -10
v -10 -3 10
f -1 -2 -3 -4
# back wall
v 10 10 -10
v 10 -3 -10
v -10 -3 -10
v -10 10 -10
f -1 -2 -3 -4
# left wall
v 10 10 10
v 10 -3 10
v 10 10 -10
v 10 -3 -10
f -1 -2 -3 -4
# right wall
v -10 10 10
v -10 -3 10
v -10 -3 -10
v -10 10 -10
f -1 -2 -3 -4
